solid ascii
  facet normal 0.000000e+000 -1.000000e+000 0.000000e+000
    outer loop
      vertex   -6.421547e+001 1.176089e+002 0.000000e+000
      vertex   -5.221547e+001 1.176089e+002 0.000000e+000
      vertex   -6.421547e+001 1.176089e+002 1.500000e+001
    endloop
  endfacet
  facet normal 0.000000e+000 -1.000000e+000 0.000000e+000
    outer loop
      vertex   -6.421547e+001 1.176089e+002 1.500000e+001
      vertex   -5.221547e+001 1.176089e+002 0.000000e+000
      vertex   -5.221547e+001 1.176089e+002 1.500000e+001
    endloop
  endfacet
  facet normal -1.000000e+000 0.000000e+000 0.000000e+000
    outer loop
      vertex   -5.221547e+001 1.176089e+002 0.000000e+000
      vertex   -5.221547e+001 1.056089e+002 0.000000e+000
      vertex   -5.221547e+001 1.176089e+002 1.500000e+001
    endloop
  endfacet
  facet normal -1.000000e+000 -0.000000e+000 0.000000e+000
    outer loop
      vertex   -5.221547e+001 1.176089e+002 1.500000e+001
      vertex   -5.221547e+001 1.056089e+002 0.000000e+000
      vertex   -5.221547e+001 1.056089e+002 1.500000e+001
    endloop
  endfacet
  facet normal 0.000000e+000 1.000000e+000 -0.000000e+000
    outer loop
      vertex   -5.221547e+001 1.056089e+002 0.000000e+000
      vertex   -6.421547e+001 1.056089e+002 0.000000e+000
      vertex   -5.221547e+001 1.056089e+002 1.500000e+001
    endloop
  endfacet
  facet normal 0.000000e+000 1.000000e+000 -0.000000e+000
    outer loop
      vertex   -5.221547e+001 1.056089e+002 1.500000e+001
      vertex   -6.421547e+001 1.056089e+002 0.000000e+000
      vertex   -6.421547e+001 1.056089e+002 1.500000e+001
    endloop
  endfacet
  facet normal 0.000000e+000 -0.000000e+000 1.000000e+000
    outer loop
      vertex   -6.421547e+001 1.176089e+002 1.500000e+001
      vertex   -5.221547e+001 1.176089e+002 1.500000e+001
      vertex   -6.421547e+001 1.231089e+002 1.500000e+001
    endloop
  endfacet
  facet normal -0.000000e+000 0.000000e+000 1.000000e+000
    outer loop
      vertex   -6.421547e+001 1.231089e+002 1.500000e+001
      vertex   -5.221547e+001 1.176089e+002 1.500000e+001
      vertex   -5.021547e+001 1.231089e+002 1.500000e+001
    endloop
  endfacet
  facet normal 0.000000e+000 0.000000e+000 1.000000e+000
    outer loop
      vertex   -5.021547e+001 1.231089e+002 1.500000e+001
      vertex   -5.221547e+001 1.176089e+002 1.500000e+001
      vertex   -5.021547e+001 1.001089e+002 1.500000e+001
    endloop
  endfacet
  facet normal 0.000000e+000 0.000000e+000 1.000000e+000
    outer loop
      vertex   -5.021547e+001 1.001089e+002 1.500000e+001
      vertex   -5.221547e+001 1.176089e+002 1.500000e+001
      vertex   -5.221547e+001 1.056089e+002 1.500000e+001
    endloop
  endfacet
  facet normal 0.000000e+000 -0.000000e+000 1.000000e+000
    outer loop
      vertex   -6.421547e+001 1.001089e+002 1.500000e+001
      vertex   -5.221547e+001 1.056089e+002 1.500000e+001
      vertex   -6.421547e+001 1.056089e+002 1.500000e+001
    endloop
  endfacet
  facet normal 0.000000e+000 -0.000000e+000 1.000000e+000
    outer loop
      vertex   -6.421547e+001 1.001089e+002 1.500000e+001
      vertex   -5.021547e+001 1.001089e+002 1.500000e+001
      vertex   -5.221547e+001 1.056089e+002 1.500000e+001
    endloop
  endfacet
  facet normal -1.000000e+000 0.000000e+000 0.000000e+000
    outer loop
      vertex   -6.421547e+001 1.056089e+002 0.000000e+000
      vertex   -6.421547e+001 1.001089e+002 0.000000e+000
      vertex   -6.421547e+001 1.056089e+002 1.500000e+001
    endloop
  endfacet
  facet normal -1.000000e+000 -0.000000e+000 0.000000e+000
    outer loop
      vertex   -6.421547e+001 1.056089e+002 1.500000e+001
      vertex   -6.421547e+001 1.001089e+002 0.000000e+000
      vertex   -6.421547e+001 1.001089e+002 1.500000e+001
    endloop
  endfacet
  facet normal 0.000000e+000 1.000000e+000 -0.000000e+000
    outer loop
      vertex   -5.021547e+001 1.231089e+002 0.000000e+000
      vertex   -6.421547e+001 1.231089e+002 0.000000e+000
      vertex   -5.021547e+001 1.231089e+002 1.500000e+001
    endloop
  endfacet
  facet normal 0.000000e+000 1.000000e+000 -0.000000e+000
    outer loop
      vertex   -5.021547e+001 1.231089e+002 1.500000e+001
      vertex   -6.421547e+001 1.231089e+002 0.000000e+000
      vertex   -6.421547e+001 1.231089e+002 1.500000e+001
    endloop
  endfacet
  facet normal 1.000000e+000 0.000000e+000 -0.000000e+000
    outer loop
      vertex   -5.021547e+001 1.001089e+002 0.000000e+000
      vertex   -5.021547e+001 1.231089e+002 0.000000e+000
      vertex   -5.021547e+001 1.001089e+002 1.500000e+001
    endloop
  endfacet
  facet normal 1.000000e+000 -0.000000e+000 0.000000e+000
    outer loop
      vertex   -5.021547e+001 1.001089e+002 1.500000e+001
      vertex   -5.021547e+001 1.231089e+002 0.000000e+000
      vertex   -5.021547e+001 1.231089e+002 1.500000e+001
    endloop
  endfacet
  facet normal 0.000000e+000 -1.000000e+000 0.000000e+000
    outer loop
      vertex   -6.421547e+001 1.001089e+002 0.000000e+000
      vertex   -5.021547e+001 1.001089e+002 0.000000e+000
      vertex   -6.421547e+001 1.001089e+002 1.500000e+001
    endloop
  endfacet
  facet normal 0.000000e+000 -1.000000e+000 0.000000e+000
    outer loop
      vertex   -6.421547e+001 1.001089e+002 1.500000e+001
      vertex   -5.021547e+001 1.001089e+002 0.000000e+000
      vertex   -5.021547e+001 1.001089e+002 1.500000e+001
    endloop
  endfacet
  facet normal -1.000000e+000 0.000000e+000 -0.000000e+000
    outer loop
      vertex   -6.421547e+001 1.176089e+002 1.500000e+001
      vertex   -6.421547e+001 1.231089e+002 1.500000e+001
      vertex   -6.421547e+001 1.176089e+002 0.000000e+000
    endloop
  endfacet
  facet normal -1.000000e+000 0.000000e+000 0.000000e+000
    outer loop
      vertex   -6.421547e+001 1.176089e+002 0.000000e+000
      vertex   -6.421547e+001 1.231089e+002 1.500000e+001
      vertex   -6.421547e+001 1.231089e+002 0.000000e+000
    endloop
  endfacet
  facet normal 0.000000e+000 0.000000e+000 -1.000000e+000
    outer loop
      vertex   -6.421547e+001 1.176089e+002 0.000000e+000
      vertex   -6.421547e+001 1.231089e+002 0.000000e+000
      vertex   -5.221547e+001 1.176089e+002 0.000000e+000
    endloop
  endfacet
  facet normal 0.000000e+000 0.000000e+000 -1.000000e+000
    outer loop
      vertex   -5.221547e+001 1.176089e+002 0.000000e+000
      vertex   -6.421547e+001 1.231089e+002 0.000000e+000
      vertex   -5.021547e+001 1.231089e+002 0.000000e+000
    endloop
  endfacet
  facet normal 0.000000e+000 0.000000e+000 -1.000000e+000
    outer loop
      vertex   -5.021547e+001 1.001089e+002 0.000000e+000
      vertex   -5.221547e+001 1.176089e+002 0.000000e+000
      vertex   -5.021547e+001 1.231089e+002 0.000000e+000
    endloop
  endfacet
  facet normal 0.000000e+000 0.000000e+000 -1.000000e+000
    outer loop
      vertex   -5.021547e+001 1.001089e+002 0.000000e+000
      vertex   -5.221547e+001 1.056089e+002 0.000000e+000
      vertex   -5.221547e+001 1.176089e+002 0.000000e+000
    endloop
  endfacet
  facet normal 0.000000e+000 0.000000e+000 -1.000000e+000
    outer loop
      vertex   -5.021547e+001 1.001089e+002 0.000000e+000
      vertex   -6.421547e+001 1.001089e+002 0.000000e+000
      vertex   -5.221547e+001 1.056089e+002 0.000000e+000
    endloop
  endfacet
  facet normal -0.000000e+000 0.000000e+000 -1.000000e+000
    outer loop
      vertex   -5.221547e+001 1.056089e+002 0.000000e+000
      vertex   -6.421547e+001 1.001089e+002 0.000000e+000
      vertex   -6.421547e+001 1.056089e+002 0.000000e+000
    endloop
  endfacet
endsolid
