solid ascii
  facet normal 0.000000e+000 -1.000000e+000 0.000000e+000
    outer loop
      vertex   -7.913707e+001 1.176318e+002 0.000000e+000
      vertex   -7.113707e+001 1.176318e+002 0.000000e+000
      vertex   -7.913707e+001 1.176318e+002 5.000000e+000
    endloop
  endfacet
  facet normal 0.000000e+000 -1.000000e+000 0.000000e+000
    outer loop
      vertex   -7.913707e+001 1.176318e+002 5.000000e+000
      vertex   -7.113707e+001 1.176318e+002 0.000000e+000
      vertex   -7.113707e+001 1.176318e+002 5.000000e+000
    endloop
  endfacet
  facet normal -1.000000e+000 0.000000e+000 0.000000e+000
    outer loop
      vertex   -7.113707e+001 1.176318e+002 0.000000e+000
      vertex   -7.113707e+001 1.056318e+002 0.000000e+000
      vertex   -7.113707e+001 1.176318e+002 5.000000e+000
    endloop
  endfacet
  facet normal -1.000000e+000 -0.000000e+000 0.000000e+000
    outer loop
      vertex   -7.113707e+001 1.176318e+002 5.000000e+000
      vertex   -7.113707e+001 1.056318e+002 0.000000e+000
      vertex   -7.113707e+001 1.056318e+002 5.000000e+000
    endloop
  endfacet
  facet normal 0.000000e+000 1.000000e+000 -0.000000e+000
    outer loop
      vertex   -7.113707e+001 1.056318e+002 0.000000e+000
      vertex   -7.913707e+001 1.056318e+002 0.000000e+000
      vertex   -7.113707e+001 1.056318e+002 5.000000e+000
    endloop
  endfacet
  facet normal 0.000000e+000 1.000000e+000 -0.000000e+000
    outer loop
      vertex   -7.113707e+001 1.056318e+002 5.000000e+000
      vertex   -7.913707e+001 1.056318e+002 0.000000e+000
      vertex   -7.913707e+001 1.056318e+002 5.000000e+000
    endloop
  endfacet
  facet normal 0.000000e+000 -0.000000e+000 1.000000e+000
    outer loop
      vertex   -7.913707e+001 1.176318e+002 5.000000e+000
      vertex   -7.113707e+001 1.176318e+002 5.000000e+000
      vertex   -7.913707e+001 1.231318e+002 5.000000e+000
    endloop
  endfacet
  facet normal -0.000000e+000 0.000000e+000 1.000000e+000
    outer loop
      vertex   -7.913707e+001 1.231318e+002 5.000000e+000
      vertex   -7.113707e+001 1.176318e+002 5.000000e+000
      vertex   -7.013707e+001 1.231318e+002 5.000000e+000
    endloop
  endfacet
  facet normal 0.000000e+000 0.000000e+000 1.000000e+000
    outer loop
      vertex   -7.013707e+001 1.231318e+002 5.000000e+000
      vertex   -7.113707e+001 1.176318e+002 5.000000e+000
      vertex   -7.013707e+001 1.001318e+002 5.000000e+000
    endloop
  endfacet
  facet normal 0.000000e+000 0.000000e+000 1.000000e+000
    outer loop
      vertex   -7.013707e+001 1.001318e+002 5.000000e+000
      vertex   -7.113707e+001 1.176318e+002 5.000000e+000
      vertex   -7.113707e+001 1.056318e+002 5.000000e+000
    endloop
  endfacet
  facet normal 0.000000e+000 -0.000000e+000 1.000000e+000
    outer loop
      vertex   -7.913707e+001 1.001318e+002 5.000000e+000
      vertex   -7.113707e+001 1.056318e+002 5.000000e+000
      vertex   -7.913707e+001 1.056318e+002 5.000000e+000
    endloop
  endfacet
  facet normal 0.000000e+000 -0.000000e+000 1.000000e+000
    outer loop
      vertex   -7.913707e+001 1.001318e+002 5.000000e+000
      vertex   -7.013707e+001 1.001318e+002 5.000000e+000
      vertex   -7.113707e+001 1.056318e+002 5.000000e+000
    endloop
  endfacet
  facet normal -1.000000e+000 0.000000e+000 0.000000e+000
    outer loop
      vertex   -7.913707e+001 1.056318e+002 0.000000e+000
      vertex   -7.913707e+001 1.001318e+002 0.000000e+000
      vertex   -7.913707e+001 1.056318e+002 5.000000e+000
    endloop
  endfacet
  facet normal -1.000000e+000 -0.000000e+000 0.000000e+000
    outer loop
      vertex   -7.913707e+001 1.056318e+002 5.000000e+000
      vertex   -7.913707e+001 1.001318e+002 0.000000e+000
      vertex   -7.913707e+001 1.001318e+002 5.000000e+000
    endloop
  endfacet
  facet normal 0.000000e+000 1.000000e+000 -0.000000e+000
    outer loop
      vertex   -7.013707e+001 1.231318e+002 0.000000e+000
      vertex   -7.913707e+001 1.231318e+002 0.000000e+000
      vertex   -7.013707e+001 1.231318e+002 5.000000e+000
    endloop
  endfacet
  facet normal 0.000000e+000 1.000000e+000 -0.000000e+000
    outer loop
      vertex   -7.013707e+001 1.231318e+002 5.000000e+000
      vertex   -7.913707e+001 1.231318e+002 0.000000e+000
      vertex   -7.913707e+001 1.231318e+002 5.000000e+000
    endloop
  endfacet
  facet normal 1.000000e+000 0.000000e+000 -0.000000e+000
    outer loop
      vertex   -7.013707e+001 1.001318e+002 0.000000e+000
      vertex   -7.013707e+001 1.231318e+002 0.000000e+000
      vertex   -7.013707e+001 1.001318e+002 5.000000e+000
    endloop
  endfacet
  facet normal 1.000000e+000 -0.000000e+000 0.000000e+000
    outer loop
      vertex   -7.013707e+001 1.001318e+002 5.000000e+000
      vertex   -7.013707e+001 1.231318e+002 0.000000e+000
      vertex   -7.013707e+001 1.231318e+002 5.000000e+000
    endloop
  endfacet
  facet normal 0.000000e+000 -1.000000e+000 0.000000e+000
    outer loop
      vertex   -7.913707e+001 1.001318e+002 0.000000e+000
      vertex   -7.013707e+001 1.001318e+002 0.000000e+000
      vertex   -7.913707e+001 1.001318e+002 5.000000e+000
    endloop
  endfacet
  facet normal 0.000000e+000 -1.000000e+000 0.000000e+000
    outer loop
      vertex   -7.913707e+001 1.001318e+002 5.000000e+000
      vertex   -7.013707e+001 1.001318e+002 0.000000e+000
      vertex   -7.013707e+001 1.001318e+002 5.000000e+000
    endloop
  endfacet
  facet normal -1.000000e+000 0.000000e+000 -0.000000e+000
    outer loop
      vertex   -7.913707e+001 1.176318e+002 5.000000e+000
      vertex   -7.913707e+001 1.231318e+002 5.000000e+000
      vertex   -7.913707e+001 1.176318e+002 0.000000e+000
    endloop
  endfacet
  facet normal -1.000000e+000 0.000000e+000 0.000000e+000
    outer loop
      vertex   -7.913707e+001 1.176318e+002 0.000000e+000
      vertex   -7.913707e+001 1.231318e+002 5.000000e+000
      vertex   -7.913707e+001 1.231318e+002 0.000000e+000
    endloop
  endfacet
  facet normal 0.000000e+000 0.000000e+000 -1.000000e+000
    outer loop
      vertex   -7.913707e+001 1.176318e+002 0.000000e+000
      vertex   -7.913707e+001 1.231318e+002 0.000000e+000
      vertex   -7.113707e+001 1.176318e+002 0.000000e+000
    endloop
  endfacet
  facet normal 0.000000e+000 0.000000e+000 -1.000000e+000
    outer loop
      vertex   -7.113707e+001 1.176318e+002 0.000000e+000
      vertex   -7.913707e+001 1.231318e+002 0.000000e+000
      vertex   -7.013707e+001 1.231318e+002 0.000000e+000
    endloop
  endfacet
  facet normal 0.000000e+000 0.000000e+000 -1.000000e+000
    outer loop
      vertex   -7.013707e+001 1.001318e+002 0.000000e+000
      vertex   -7.113707e+001 1.176318e+002 0.000000e+000
      vertex   -7.013707e+001 1.231318e+002 0.000000e+000
    endloop
  endfacet
  facet normal 0.000000e+000 0.000000e+000 -1.000000e+000
    outer loop
      vertex   -7.013707e+001 1.001318e+002 0.000000e+000
      vertex   -7.113707e+001 1.056318e+002 0.000000e+000
      vertex   -7.113707e+001 1.176318e+002 0.000000e+000
    endloop
  endfacet
  facet normal 0.000000e+000 0.000000e+000 -1.000000e+000
    outer loop
      vertex   -7.013707e+001 1.001318e+002 0.000000e+000
      vertex   -7.913707e+001 1.001318e+002 0.000000e+000
      vertex   -7.113707e+001 1.056318e+002 0.000000e+000
    endloop
  endfacet
  facet normal -0.000000e+000 0.000000e+000 -1.000000e+000
    outer loop
      vertex   -7.113707e+001 1.056318e+002 0.000000e+000
      vertex   -7.913707e+001 1.001318e+002 0.000000e+000
      vertex   -7.913707e+001 1.056318e+002 0.000000e+000
    endloop
  endfacet
endsolid
